<?xml version="1.0" encoding="UTF-8"?> <svg xmlns="http://www.w3.org/2000/svg" id="Capa_1" data-name="Capa 1" viewBox="0 0 414.53 89.36"><defs><style>.cls-1{fill:#869ec1;}.cls-2{fill:#222221;}</style></defs><path class="cls-1" d="M90.38,73.2a.44.44,0,0,1-.44.44H71a3.58,3.58,0,0,0-.86.13L50.29,80a1.75,1.75,0,0,1-.85,0L29.61,73.77a3.58,3.58,0,0,0-.86-.13H9.81a.45.45,0,0,1-.45-.44V9.81a.45.45,0,0,1,.45-.44H28.75a3.58,3.58,0,0,1,.86.13l19.83,6.24a1.71,1.71,0,0,0,.84,0L70.13,9.5A3.58,3.58,0,0,1,71,9.37h19a.44.44,0,0,1,.44.44ZM98.86,0H71.43A7.32,7.32,0,0,0,69.7.26l-19,6a3.23,3.23,0,0,1-1.69,0L30,.26A7.32,7.32,0,0,0,28.3,0H.88A.89.89,0,0,0,0,.89V82.12A.89.89,0,0,0,.88,83H28.3a7.32,7.32,0,0,1,1.74.26l19,6a3.23,3.23,0,0,0,1.69,0l19-6A7.32,7.32,0,0,1,71.43,83H98.86a.89.89,0,0,0,.89-.89V.88A.89.89,0,0,0,98.86,0"></path><path class="cls-2" d="M125,4.8V7.43h-8.93v5.84H124V15.9h-7.91v7.75H113V4.8Z"></path><path class="cls-2" d="M128.24,18.41V9.68h2.9v7.58c0,3.67.36,4,3,4,2.93,0,3.2-1.48,3.2-4.38V9.68h2.91v14h-2.66l-.11-1.87h-.19c-.66,1.35-1.95,2.09-4.44,2.09C128.9,23.87,128.24,22,128.24,18.41Z"></path><path class="cls-2" d="M147.27,9.68l.09,1.86h.22c.63-1.34,1.94-2.08,4.43-2.08,4,0,4.58,1.83,4.58,5.45v8.74h-2.91V16.06c0-3.67-.33-4-3-4-3,0-3.24,1.48-3.24,4.38v7.21h-2.9v-14Z"></path><path class="cls-2" d="M160.39,16.69c0-5.59,1.24-7.23,4.91-7.23,2,0,3.5.38,4.32,1.86h.17v-8h2.9V23.65H170l-.11-1.84h-.16c-.85,1.73-2.63,2.06-4.38,2.06C161.65,23.87,160.39,22.28,160.39,16.69Zm9,3.29a8.8,8.8,0,0,0,.39-3.37,8.22,8.22,0,0,0-.36-3.15c-.41-1-1.26-1.4-2.87-1.4-2.88,0-3.24.49-3.24,4.6s.36,4.63,3.26,4.63C168.17,21.29,169,20.88,169.4,20Z"></path><path class="cls-2" d="M176.25,19.78c0-3.17,1-4.32,4.33-4.32.74,0,3.15,0,4.74.11v-.66c0-2.85-.58-3-4-3-1.21,0-3.32.13-4.16.24V9.87a30.79,30.79,0,0,1,5.17-.41c5.21,0,5.89,1.56,5.89,5.53v8.66h-2.66l-.11-1.81h-.16c-.9,1.81-3,2-4.68,2C177.73,23.87,176.25,22.88,176.25,19.78Zm8.57.66a5.12,5.12,0,0,0,.5-2.49v-.49h-4c-1.84,0-2.22.27-2.22,2.05s.41,2,2.82,2C183.29,21.51,184.33,21.29,184.82,20.44Z"></path><path class="cls-2" d="M192,16.63c0-4.84.68-7.17,5.72-7.17a20,20,0,0,1,3.89.38v2.3a23.72,23.72,0,0,0-3.15-.24c-3.15,0-3.53.82-3.53,4.76s.44,4.77,3.59,4.77a21.35,21.35,0,0,0,3.2-.25v2.3a20.12,20.12,0,0,1-3.92.39C192.44,23.87,192,21.56,192,16.63Z"></path><path class="cls-2" d="M208.19,3.3V6.14h-3V3.3Zm-.09,6.38v14h-2.9v-14Z"></path><path class="cls-2" d="M211.91,16.63c0-5.67.36-7.17,6.27-7.17s6.27,1.5,6.27,7.17-.35,7.24-6.27,7.24S211.91,22.33,211.91,16.63Zm9.61,0c0-4.19,0-4.73-3.34-4.73s-3.34.54-3.34,4.73,0,4.8,3.34,4.8S221.52,20.85,221.52,16.63ZM219,3.62h3v.14l-3.56,3.78h-2.14V7.4Z"></path><path class="cls-2" d="M230.92,9.68l.08,1.86h.22c.63-1.34,1.94-2.08,4.44-2.08,3.94,0,4.57,1.83,4.57,5.45v8.74h-2.9V16.06c0-3.67-.33-4-3-4-3,0-3.23,1.48-3.23,4.38v7.21h-2.91v-14Z"></path><path class="cls-2" d="M252,16.42V7.65h2.93v8.68c0,4.39.85,5.26,3.86,5.26s3.81-.87,3.81-5.26V7.65h2.87v8.77c0,5.91-1.59,7.45-6.73,7.45S252,22.17,252,16.42Z"></path><path class="cls-2" d="M271.45,7.68h3.1l7.72,10.79h0V7.68h3v16H282.6l-8.08-11.32h0V23.65h-3Z"></path><path class="cls-2" d="M291.12,23.51V21.18a56.65,56.65,0,0,0,6.19.36c2.46,0,3-.41,3-2.36,0-1.61-.3-1.86-1.51-2.05l-4.52-.47c-3.09-.27-4-1.48-4-4.52,0-2.82.85-4.82,6.77-4.82a53.62,53.62,0,0,1,5.39.39V9.9a36.3,36.3,0,0,0-5.61-.41c-3.48,0-3.62,1.23-3.62,2.19,0,1.81.55,2.11,1.75,2.22l4.44.43c2.66.28,3.92.91,3.92,4.55,0,4.33-2.52,5-6.16,5C295.5,23.87,292.71,23.67,291.12,23.51Z"></path><path class="cls-2" d="M312.75,7.65h3.54l6.35,16h-2.87l-1.59-4h-7.43l-1.58,4h-2.83Zm4.52,9.78-2.74-7.18h-.13l-2.8,7.18Z"></path><path class="cls-2" d="M326.53,7.65h3.23l5.43,12.57h.05l5.12-12.57h2.93v16h-2.57V12.58l-4.55,11.07H334l-4.88-11.07h0V23.65h-2.57Z"></path><path class="cls-2" d="M116.11,32.19V51H113V32.19Z"></path><path class="cls-2" d="M123.45,37.06l.08,1.86h.22c.63-1.34,1.94-2.08,4.44-2.08,3.94,0,4.57,1.84,4.57,5.45V51h-2.9V43.44c0-3.67-.33-4-3-4-3,0-3.23,1.48-3.23,4.39V51h-2.91v-14Z"></path><path class="cls-2" d="M139.8,37.06l.08,1.86h.22c.63-1.34,1.94-2.08,4.44-2.08,3.94,0,4.57,1.84,4.57,5.45V51h-2.9V43.44c0-3.67-.33-4-3-4-3,0-3.23,1.48-3.23,4.39V51h-2.91v-14Z"></path><path class="cls-2" d="M152.92,44c0-5.67.35-7.18,6.27-7.18s6.27,1.51,6.27,7.18-.36,7.23-6.27,7.23S152.92,49.72,152.92,44Zm9.61,0c0-4.19,0-4.74-3.34-4.74s-3.34.55-3.34,4.74,0,4.79,3.34,4.79S162.53,48.24,162.53,44Z"></path><path class="cls-2" d="M170.72,37.06l3.61,11.12h.25l3.56-11.12h3l-4.82,14h-3.78l-4.82-14Z"></path><path class="cls-2" d="M183.1,47.17c0-3.18,1-4.33,4.33-4.33.74,0,3.15.06,4.73.11v-.66c0-2.85-.57-3-4-3-1.21,0-3.32.14-4.17.25V37.25a31,31,0,0,1,5.18-.41c5.2,0,5.89,1.56,5.89,5.54V51h-2.66l-.11-1.81h-.16c-.91,1.81-3,2-4.69,2C184.58,51.25,183.1,50.26,183.1,47.17Zm8.57.66a5.18,5.18,0,0,0,.49-2.5v-.49h-4c-1.84,0-2.22.27-2.22,2s.41,2,2.82,2C190.14,48.89,191.18,48.67,191.67,47.83Z"></path><path class="cls-2" d="M198.87,44c0-4.85.69-7.18,5.73-7.18a20,20,0,0,1,3.89.39v2.3a22.22,22.22,0,0,0-3.15-.25c-3.15,0-3.54.82-3.54,4.77s.44,4.76,3.59,4.76a22.83,22.83,0,0,0,3.21-.24v2.3a21,21,0,0,1-3.92.38C199.28,51.25,198.87,49,198.87,44Z"></path><path class="cls-2" d="M215,30.68v2.85h-3V30.68ZM215,37.06V51h-2.9v-14Z"></path><path class="cls-2" d="M218.76,44c0-5.67.35-7.18,6.27-7.18s6.27,1.51,6.27,7.18-.36,7.23-6.27,7.23S218.76,49.72,218.76,44Zm9.61,0c0-4.19,0-4.74-3.34-4.74s-3.34.55-3.34,4.74,0,4.79,3.34,4.79S228.37,48.24,228.37,44Zm-2.52-13h3v.14l-3.56,3.77h-2.13v-.13Z"></path><path class="cls-2" d="M237.76,37.06l.09,1.86h.22c.63-1.34,1.94-2.08,4.43-2.08,3.95,0,4.58,1.84,4.58,5.45V51h-2.91V43.44c0-3.67-.33-4-2.95-4-3,0-3.24,1.48-3.24,4.39V51h-2.9v-14Z"></path><path class="cls-2" d="M258.88,56.43V54.12c2,.09,3.12.11,4.05.11,4,0,4.19-.87,4.19-4.16v-.85H267c-.6,1.18-1.81,1.92-4.33,1.92-3.94,0-4.6-1.78-4.6-5.4V37.06h2.9v7.53c0,3.67.36,4,3,4,2.93,0,3.2-1.48,3.2-4.38V37.06H270V49.39c0,5.2-.63,7.28-6.44,7.28C262,56.67,260.06,56.56,258.88,56.43Z"></path><path class="cls-2" d="M279.5,34.9V32.19h14.55V34.9h-5.73V51h-3.09V34.9Z"></path><path class="cls-2" d="M299.28,45c0,3.24.22,3.84,4.24,3.84a39.78,39.78,0,0,0,4.33-.27v2.27a29.8,29.8,0,0,1-5,.41c-5.92,0-6.49-1.86-6.49-7.18,0-5.06.57-7.23,6.3-7.23,5.53,0,5.75,2.17,5.75,7.23V45Zm0-2h6.35v-.08c0-3.26-.68-3.67-3.06-3.67C299.66,39.25,299.31,39.88,299.28,43Z"></path><path class="cls-2" d="M311.66,44c0-4.85.68-7.18,5.72-7.18a20,20,0,0,1,3.89.39v2.3a22.1,22.1,0,0,0-3.15-.25c-3.15,0-3.53.82-3.53,4.77s.44,4.76,3.59,4.76a22.69,22.69,0,0,0,3.2-.24v2.3a20.91,20.91,0,0,1-3.92.38C312.07,51.25,311.66,49,311.66,44Z"></path><path class="cls-2" d="M327.51,37.06l.09,1.86h.22c.63-1.34,1.94-2.08,4.43-2.08,3.95,0,4.58,1.84,4.58,5.45V51h-2.91V43.44c0-3.67-.33-4-2.95-4-3,0-3.24,1.48-3.24,4.39V51h-2.9v-14Z"></path><path class="cls-2" d="M340.63,44c0-5.67.36-7.18,6.28-7.18s6.27,1.51,6.27,7.18-.36,7.23-6.27,7.23S340.63,49.72,340.63,44Zm9.62,0c0-4.19,0-4.74-3.34-4.74s-3.34.55-3.34,4.74,0,4.79,3.34,4.79S350.25,48.24,350.25,44Z"></path><path class="cls-2" d="M359.86,30.68V51H357V30.68Z"></path><path class="cls-2" d="M363.67,44c0-5.67.35-7.18,6.27-7.18s6.27,1.51,6.27,7.18-.35,7.23-6.27,7.23S363.67,49.72,363.67,44Zm9.61,0c0-4.19,0-4.74-3.34-4.74s-3.34.55-3.34,4.74,0,4.79,3.34,4.79S373.28,48.24,373.28,44Z"></path><path class="cls-2" d="M380.37,56.4V54.12c1.15.06,2.93.11,4.17.11,4,0,4.3-.71,4.3-4.3v-.68h-.14c-.77,1.48-2.27,1.89-4.27,1.89-3.76,0-5-1.56-5-7.09s1.26-7.21,5-7.21c1.7,0,3.51.36,4.36,2.08H389l.11-1.86h2.66V49.3c0,5.26-.57,7.37-6.52,7.37A43.4,43.4,0,0,1,380.37,56.4Zm8-9a7.21,7.21,0,0,0,.47-3.42,7.12,7.12,0,0,0-.47-3.4c-.44-.82-1.26-1.2-2.74-1.2-2.9,0-3.26.49-3.26,4.6s.36,4.57,3.26,4.57C387.11,48.59,387.93,48.24,388.37,47.44Z"></path><path class="cls-2" d="M398.4,31h3v.14l-3.56,3.77h-2.14v-.13Zm.6,6.05V51h-2.91v-14Z"></path><path class="cls-2" d="M402.56,47.17c0-3.18,1-4.33,4.33-4.33.74,0,3.15.06,4.73.11v-.66c0-2.85-.57-3-4-3-1.21,0-3.32.14-4.17.25V37.25a31,31,0,0,1,5.18-.41c5.2,0,5.89,1.56,5.89,5.54V51h-2.66l-.11-1.81h-.16c-.91,1.81-3,2-4.69,2C404,51.25,402.56,50.26,402.56,47.17Zm8.57.66a5.18,5.18,0,0,0,.49-2.5v-.49h-4c-1.84,0-2.22.27-2.22,2s.41,2,2.82,2C409.6,48.89,410.64,48.67,411.13,47.83Z"></path><path class="cls-2" d="M113.64,62.42h10.63v1.42h-8.9V70h8v1.35h-8v7h-1.73Z"></path><path class="cls-2" d="M128.65,71.24V62.42h1.73V72c0,4.32.85,5.31,4.68,5.31s4.63-.93,4.63-5.31V62.42h1.78v8.82c0,5.91-1.26,7.39-6.41,7.39S128.65,77.15,128.65,71.24Z"></path><path class="cls-2" d="M147.77,62.39h1.67l10,13.26h0V62.39H161v16h-1.56L149.41,65h0V78.41h-1.61Z"></path><path class="cls-2" d="M167.32,62.42h1.73v16h-1.73Z"></path><path class="cls-2" d="M175.35,62.39H177l10,13.26h0V62.39h1.58v16H187L177,65h0V78.41h-1.61Z"></path><path class="cls-2" d="M198.22,64h-5.64V62.5h13.06V64h-5.7v14.4h-1.72Z"></path><path class="cls-2" d="M209.61,62.42H220.9v1.42h-9.56v5.78h8.38v1.43h-8.38V77h9.56v1.42H209.61Z"></path><path class="cls-2" d="M225.41,70.42c0-6.88,1.37-8.22,7.43-8.22a26.9,26.9,0,0,1,4.08.33v1.31a27.05,27.05,0,0,0-4-.3c-4.91,0-5.81.63-5.81,6.79s.71,6.91,6.11,6.91c1.12,0,2.76-.11,3.58-.2v1.4c-1.09.11-2.57.19-3.56.19C226.59,78.63,225.41,77.32,225.41,70.42Z"></path></svg> 